<svg width="60" height="60" viewBox="0 0 60 60" fill="none" xmlns="http://www.w3.org/2000/svg">
<rect width="60" height="60" rx="10" fill="#E6ECF0"/>
<path fill-rule="evenodd" clip-rule="evenodd" d="M16 21.5714C16 20.6242 16.3819 19.7158 17.0617 19.046C17.7416 18.3763 18.6636 18 19.625 18H41.375C42.3364 18 43.2584 18.3763 43.9383 19.046C44.6181 19.7158 45 20.6242 45 21.5714V25.1429C45 26.0901 44.6181 26.9985 43.9383 27.6682C43.2584 28.338 42.3364 28.7143 41.375 28.7143H19.625C18.6636 28.7143 17.7416 28.338 17.0617 27.6682C16.3819 26.9985 16 26.0901 16 25.1429V21.5714ZM41.375 23.3571C41.375 23.8307 41.184 24.2849 40.8441 24.6198C40.5042 24.9547 40.0432 25.1429 39.5625 25.1429C39.0818 25.1429 38.6208 24.9547 38.2809 24.6198C37.941 24.2849 37.75 23.8307 37.75 23.3571C37.75 22.8835 37.941 22.4293 38.2809 22.0945C38.6208 21.7596 39.0818 21.5714 39.5625 21.5714C40.0432 21.5714 40.5042 21.7596 40.8441 22.0945C41.184 22.4293 41.375 22.8835 41.375 23.3571ZM16 35.8571C16 34.9099 16.3819 34.0015 17.0617 33.3318C17.7416 32.662 18.6636 32.2857 19.625 32.2857H41.375C42.3364 32.2857 43.2584 32.662 43.9383 33.3318C44.6181 34.0015 45 34.9099 45 35.8571V39.4286C45 40.3758 44.6181 41.2842 43.9383 41.954C43.2584 42.6237 42.3364 43 41.375 43H19.625C18.6636 43 17.7416 42.6237 17.0617 41.954C16.3819 41.2842 16 40.3758 16 39.4286V35.8571ZM41.375 37.6429C41.375 38.1165 41.184 38.5707 40.8441 38.9055C40.5042 39.2404 40.0432 39.4286 39.5625 39.4286C39.0818 39.4286 38.6208 39.2404 38.2809 38.9055C37.941 38.5707 37.75 38.1165 37.75 37.6429C37.75 37.1693 37.941 36.7151 38.2809 36.3802C38.6208 36.0453 39.0818 35.8571 39.5625 35.8571C40.0432 35.8571 40.5042 36.0453 40.8441 36.3802C41.184 36.7151 41.375 37.1693 41.375 37.6429V37.6429Z" fill="#92A5B2"/>
</svg>
