<svg width="60" height="60" viewBox="0 0 60 60" fill="none" xmlns="http://www.w3.org/2000/svg">
<rect width="60" height="60" rx="10" fill="#E6ECF0"/>
<path fill-rule="evenodd" clip-rule="evenodd" d="M18 17.9C18 16.8657 18.4109 15.8737 19.1423 15.1423C19.8737 14.4109 20.8657 14 21.9 14H30.8427C31.877 14.0002 32.8688 14.4113 33.6 15.1427L40.2573 21.8C40.9887 22.5312 41.3998 23.523 41.4 24.5573V41.3C41.4 42.3343 40.9891 43.3263 40.2577 44.0577C39.5263 44.7891 38.5343 45.2 37.5 45.2H21.9C20.8657 45.2 19.8737 44.7891 19.1423 44.0577C18.4109 43.3263 18 42.3343 18 41.3V17.9ZM21.9 29.6C21.9 29.0828 22.1054 28.5868 22.4711 28.2211C22.8368 27.8554 23.3328 27.65 23.85 27.65H35.55C36.0672 27.65 36.5632 27.8554 36.9289 28.2211C37.2946 28.5868 37.5 29.0828 37.5 29.6C37.5 30.1172 37.2946 30.6132 36.9289 30.9789C36.5632 31.3446 36.0672 31.55 35.55 31.55H23.85C23.3328 31.55 22.8368 31.3446 22.4711 30.9789C22.1054 30.6132 21.9 30.1172 21.9 29.6ZM23.85 35.45C23.3328 35.45 22.8368 35.6554 22.4711 36.0211C22.1054 36.3868 21.9 36.8828 21.9 37.4C21.9 37.9172 22.1054 38.4132 22.4711 38.7789C22.8368 39.1446 23.3328 39.35 23.85 39.35H35.55C36.0672 39.35 36.5632 39.1446 36.9289 38.7789C37.2946 38.4132 37.5 37.9172 37.5 37.4C37.5 36.8828 37.2946 36.3868 36.9289 36.0211C36.5632 35.6554 36.0672 35.45 35.55 35.45H23.85Z" fill="#92A5B2"/>
</svg>
