<svg width="417" height="417" viewBox="0 0 417 417" fill="none" xmlns="http://www.w3.org/2000/svg">
<path fill-rule="evenodd" clip-rule="evenodd" d="M258.436 53.2301C257.114 50.5829 255.244 48.2473 252.951 46.3785C250.657 44.5096 247.991 43.1504 245.132 42.3911C242.272 41.6318 239.284 41.4899 236.365 41.9747C233.446 42.4595 230.664 43.5599 228.203 45.2029C221.01 49.9984 215.401 56.8372 211.065 63.5509C206.603 70.4314 202.662 78.4169 199.18 86.8195C192.216 103.583 186.378 123.682 181.666 143.823C175.967 168.437 171.7 193.359 168.885 218.466C160.402 212.997 153.586 205.301 149.182 196.219C142.343 182.041 140.883 164.236 140.883 140.884C140.883 136.76 139.659 132.73 137.368 129.302C135.077 125.874 131.821 123.203 128.012 121.625C124.203 120.047 120.011 119.634 115.967 120.438C111.923 121.242 108.208 123.228 105.293 126.143C91.7226 139.683 80.9611 155.771 73.6261 173.483C66.2911 191.194 62.527 210.18 62.55 229.35C62.5518 253.351 68.4724 276.981 79.7875 298.147C91.1027 319.313 107.463 337.363 127.42 350.696C147.376 364.029 170.313 372.235 194.198 374.587C218.084 376.939 242.18 373.364 264.354 364.179C286.528 354.994 306.094 340.483 321.32 321.93C336.547 303.377 346.962 281.355 351.645 257.816C356.328 234.276 355.133 209.945 348.167 186.977C341.201 164.01 328.678 143.115 311.708 126.143C299.364 113.82 291.275 105.605 283.602 95.5556C276.033 85.631 268.506 73.3921 258.436 53.2301V53.2301ZM252.702 315.252C243.954 323.989 232.814 329.937 220.688 332.346C208.562 334.755 195.993 333.517 184.571 328.787C173.148 324.057 163.383 316.048 156.509 305.772C149.635 295.496 145.961 283.413 145.95 271.05C145.95 271.05 164.277 281.475 198.075 281.475C198.075 260.625 208.5 198.075 224.138 187.65C234.563 208.5 240.526 214.609 252.723 226.827C258.541 232.627 263.155 239.52 266.3 247.109C269.445 254.699 271.06 262.835 271.05 271.05C271.06 279.265 269.445 287.401 266.3 294.991C263.155 302.58 258.541 309.473 252.723 315.273L252.702 315.252Z" fill="#292D33"/>
</svg>
