<svg width="550" height="926" viewBox="0 0 550 926" fill="none" xmlns="http://www.w3.org/2000/svg">
<g filter="url(#filter0_d_938_55)">
<mask id="mask0_938_55" style="mask-type:alpha" maskUnits="userSpaceOnUse" x="50" y="40" width="500" height="826">
<path d="M50 50C50 44.4772 54.4772 40 60 40H550V866H60C54.4771 866 50 861.523 50 856V50Z" fill="#F7F9FA"/>
</mask>
<g mask="url(#mask0_938_55)">
<path d="M50 50C50 44.4771 54.4772 40 60 40H550V867H60C54.4771 867 50 862.523 50 857V50Z" fill="#F7F9FA"/>
<rect x="50" y="115" width="500" height="751" fill="#EBEFF2"/>
<rect x="50" y="115.128" width="85.1448" height="751.278" fill="#E6ECF0"/>
<rect x="75.0426" y="227.819" width="35.0596" height="2.50426" rx="1.25213" fill="#D8E0E5"/>
<path fill-rule="evenodd" clip-rule="evenodd" d="M80.051 334.966C80.051 334.112 80.3808 333.293 80.9679 332.689C81.5549 332.085 82.3511 331.746 83.1813 331.746H101.963C102.794 331.746 103.59 332.085 104.177 332.689C104.764 333.293 105.094 334.112 105.094 334.966V338.186C105.094 339.04 104.764 339.859 104.177 340.462C103.59 341.066 102.794 341.405 101.963 341.405H83.1813C82.3511 341.405 81.5549 341.066 80.9679 340.462C80.3808 339.859 80.051 339.04 80.051 338.186V334.966ZM101.963 336.576C101.963 337.003 101.798 337.412 101.505 337.714C101.211 338.016 100.813 338.186 100.398 338.186C99.983 338.186 99.5849 338.016 99.2914 337.714C98.9979 337.412 98.833 337.003 98.833 336.576C98.833 336.149 98.9979 335.739 99.2914 335.437C99.5849 335.135 99.983 334.966 100.398 334.966C100.813 334.966 101.211 335.135 101.505 335.437C101.798 335.739 101.963 336.149 101.963 336.576ZM80.051 347.845C80.051 346.991 80.3808 346.172 80.9679 345.568C81.5549 344.964 82.3511 344.625 83.1813 344.625H101.963C102.794 344.625 103.59 344.964 104.177 345.568C104.764 346.172 105.094 346.991 105.094 347.845V351.065C105.094 351.919 104.764 352.738 104.177 353.341C103.59 353.945 102.794 354.284 101.963 354.284H83.1813C82.3511 354.284 81.5549 353.945 80.9679 353.341C80.3808 352.738 80.051 351.919 80.051 351.065V347.845ZM101.963 349.455C101.963 349.882 101.798 350.291 101.505 350.593C101.211 350.895 100.813 351.065 100.398 351.065C99.983 351.065 99.5849 350.895 99.2914 350.593C98.9979 350.291 98.833 349.882 98.833 349.455C98.833 349.028 98.9979 348.618 99.2914 348.316C99.5849 348.015 99.983 347.845 100.398 347.845C100.813 347.845 101.211 348.015 101.505 348.316C101.798 348.618 101.963 349.028 101.963 349.455Z" fill="#92A5B2"/>
<rect x="65.0256" y="245.349" width="55.0937" height="55.0937" rx="4" fill="#DDE5EB"/>
<path fill-rule="evenodd" clip-rule="evenodd" d="M81.3032 261.627C81.3032 260.631 81.699 259.675 82.4034 258.971C83.1079 258.266 84.0634 257.871 85.0596 257.871H93.673C94.6692 257.871 95.6245 258.267 96.3288 258.971L102.741 265.383C103.445 266.088 103.841 267.043 103.842 268.039V284.165C103.842 285.162 103.446 286.117 102.741 286.821C102.037 287.526 101.081 287.922 100.085 287.922H85.0596C84.0634 287.922 83.1079 287.526 82.4034 286.821C81.699 286.117 81.3032 285.162 81.3032 284.165V261.627ZM85.0596 272.896C85.0596 272.398 85.2575 271.92 85.6097 271.568C85.962 271.216 86.4397 271.018 86.9378 271.018H98.207C98.7051 271.018 99.1828 271.216 99.5351 271.568C99.8873 271.92 100.085 272.398 100.085 272.896C100.085 273.394 99.8873 273.872 99.5351 274.224C99.1828 274.576 98.7051 274.774 98.207 274.774H86.9378C86.4397 274.774 85.962 274.576 85.6097 274.224C85.2575 273.872 85.0596 273.394 85.0596 272.896ZM86.9378 278.531C86.4397 278.531 85.962 278.729 85.6097 279.081C85.2575 279.433 85.0596 279.911 85.0596 280.409C85.0596 280.907 85.2575 281.385 85.6097 281.737C85.962 282.089 86.4397 282.287 86.9378 282.287H98.207C98.7051 282.287 99.1828 282.089 99.5351 281.737C99.8873 281.385 100.085 280.907 100.085 280.409C100.085 279.911 99.8873 279.433 99.5351 279.081C99.1828 278.729 98.7051 278.531 98.207 278.531H86.9378Z" fill="#92A5B2"/>
<path fill-rule="evenodd" clip-rule="evenodd" d="M95.5569 171.627C94.7956 168.501 90.348 168.501 89.5867 171.627C89.4731 172.096 89.2501 172.532 88.9361 172.9C88.622 173.267 88.2257 173.555 87.7793 173.74C87.333 173.925 86.8493 174.002 86.3675 173.965C85.8858 173.928 85.4196 173.777 85.0069 173.526C82.2583 171.851 79.1129 174.996 80.7878 177.745C81.8696 179.52 80.91 181.836 78.8905 182.327C75.7632 183.086 75.7632 187.536 78.8905 188.293C79.3603 188.407 79.7965 188.63 80.1637 188.944C80.5309 189.259 80.8187 189.655 81.0036 190.102C81.1885 190.548 81.2654 191.032 81.2278 191.514C81.1903 191.996 81.0395 192.462 80.7878 192.875C79.1129 195.624 82.2583 198.769 85.0069 197.094C85.4195 196.842 85.8857 196.691 86.3676 196.654C86.8495 196.616 87.3334 196.693 87.78 196.878C88.2266 197.063 88.6232 197.351 88.9375 197.718C89.2518 198.085 89.4749 198.521 89.5887 198.991C90.348 202.119 94.7976 202.119 95.5549 198.991C95.6691 198.522 95.8924 198.086 96.2068 197.719C96.5212 197.352 96.9177 197.064 97.3641 196.879C97.8106 196.695 98.2943 196.618 98.7761 196.655C99.2578 196.692 99.724 196.843 100.137 197.094C102.885 198.769 106.031 195.624 104.356 192.875C104.104 192.462 103.954 191.996 103.917 191.514C103.88 191.032 103.956 190.549 104.141 190.102C104.326 189.656 104.614 189.259 104.981 188.945C105.348 188.631 105.784 188.407 106.253 188.293C109.38 187.534 109.38 183.084 106.253 182.327C105.783 182.213 105.347 181.99 104.98 181.676C104.613 181.361 104.325 180.965 104.14 180.518C103.955 180.072 103.878 179.588 103.916 179.106C103.953 178.624 104.104 178.158 104.356 177.745C106.031 174.996 102.885 171.851 100.137 173.526C99.7241 173.778 99.2579 173.929 98.776 173.966C98.2941 174.004 97.8102 173.927 97.3636 173.742C96.917 173.557 96.5204 173.269 96.2061 172.902C95.8918 172.535 95.6687 172.098 95.5549 171.629L95.5569 171.627ZM92.5718 191.32C94.1658 191.32 95.6945 190.687 96.8217 189.56C97.9488 188.433 98.582 186.904 98.582 185.31C98.582 183.716 97.9488 182.187 96.8217 181.06C95.6945 179.933 94.1658 179.3 92.5718 179.3C90.9778 179.3 89.4491 179.933 88.3219 181.06C87.1948 182.187 86.5616 183.716 86.5616 185.31C86.5616 186.904 87.1948 188.433 88.3219 189.56C89.4491 190.687 90.9778 191.32 92.5718 191.32Z" fill="#92A5B2"/>
<rect x="155.179" y="152.692" width="275.468" height="2.50426" rx="1.25213" fill="#D8E0E5"/>
<rect x="451" y="121" width="60" height="25" rx="3" fill="#E1E7EB"/>
<rect x="155.179" y="167.717" width="210.358" height="25.0426" rx="3" fill="#E1E7EB"/>
<rect x="373.049" y="167.717" width="25.0426" height="25.0426" rx="3" fill="#E1E7EB"/>
<rect x="405.605" y="167.717" width="25.0426" height="25.0426" rx="3" fill="#E1E7EB"/>
<path d="M516 124C516 122.343 517.343 121 519 121H550V146H519C517.343 146 516 144.657 516 143V124Z" fill="#E1E7EB"/>
<path d="M228.483 60.0342L237.653 68.9809V79.429L223.134 65.2559L228.483 60.0342Z" fill="#E44857"/>
<path d="M223.134 75.699L237.653 89.8721L232.304 95.0938L223.131 86.139L223.134 75.699Z" fill="#7F52FF"/>
<path d="M223.134 65.2559L243.001 84.6507L237.653 89.8721L217.785 70.4776L223.134 65.2559Z" fill="#C711E1"/>
<path d="M263.697 89.8301C262.429 89.8301 261.214 89.6359 260.053 89.2476C258.891 88.8487 257.875 88.2819 257.004 87.5472C256.134 86.802 255.505 85.9151 255.118 84.8865L259.665 83.2491C259.773 83.5535 260.01 83.8474 260.375 84.1307C260.751 84.4141 261.224 84.6503 261.794 84.8392C262.364 85.0177 262.998 85.1069 263.697 85.1069C264.342 85.1069 264.95 85.0177 265.52 84.8392C266.09 84.6503 266.552 84.3931 266.907 84.0678C267.262 83.7424 267.439 83.3645 267.439 82.9342C267.439 82.4934 267.251 82.1312 266.874 81.8479C266.509 81.554 266.036 81.3231 265.455 81.1551C264.885 80.9767 264.299 80.8455 263.697 80.7615C262.063 80.5306 260.595 80.1527 259.295 79.6279C258.004 79.0926 256.983 78.3579 256.23 77.4238C255.488 76.4896 255.118 75.3036 255.118 73.8656C255.118 72.4906 255.515 71.2888 256.311 70.2602C257.107 69.2211 258.155 68.4129 259.456 67.8356C260.768 67.2583 262.181 66.9697 263.697 66.9697C264.966 66.9697 266.181 67.1691 267.342 67.568C268.514 67.9563 269.536 68.5231 270.406 69.2683C271.277 70.0136 271.901 70.9057 272.277 71.9448L267.729 73.5507C267.622 73.2463 267.38 72.9577 267.003 72.6848C266.638 72.4014 266.17 72.1705 265.6 71.9921C265.031 71.8136 264.396 71.7244 263.697 71.7244C263.074 71.7139 262.477 71.8031 261.907 71.9921C261.337 72.181 260.87 72.4381 260.504 72.7635C260.139 73.0889 259.956 73.4563 259.956 73.8656C259.956 74.4324 260.128 74.8575 260.472 75.1409C260.816 75.4138 261.267 75.608 261.827 75.7234C262.396 75.8389 263.02 75.9438 263.697 76.0383C265.246 76.2587 266.67 76.6523 267.971 77.2191C269.272 77.7859 270.315 78.5416 271.1 79.4862C271.885 80.4309 272.277 81.5802 272.277 82.9342C272.277 84.3092 271.879 85.5162 271.084 86.5553C270.299 87.5839 269.256 88.3869 267.955 88.9642C266.654 89.5415 265.235 89.8301 263.697 89.8301Z" fill="#1A1B1C"/>
<path d="M282.255 89.8301C280.771 89.8301 279.416 89.4575 278.19 88.7123C276.976 87.967 276.002 86.9647 275.271 85.7052C274.551 84.4456 274.191 83.0549 274.191 81.533C274.191 80.3889 274.4 79.3183 274.82 78.3212C275.239 77.3136 275.814 76.4319 276.545 75.6762C277.287 74.91 278.147 74.3117 279.126 73.8814C280.104 73.451 281.147 73.2358 282.255 73.2358C283.545 73.2358 284.722 73.514 285.787 74.0703C286.862 74.6161 287.765 75.3613 288.496 76.3059C289.238 77.2401 289.765 78.2949 290.076 79.4705C290.388 80.6461 290.42 81.8583 290.173 83.1074H279.416C279.567 83.4747 279.766 83.8106 280.013 84.115C280.271 84.4089 280.583 84.6451 280.948 84.8235C281.325 85.0019 281.76 85.0964 282.255 85.1069C282.728 85.1174 283.163 85.0177 283.561 84.8077C283.969 84.5978 284.324 84.3144 284.625 83.9576L289.56 85.0754C288.904 86.4714 287.926 87.6154 286.625 88.5076C285.324 89.3893 283.867 89.8301 282.255 89.8301ZM279.239 79.6437H285.287C285.136 79.1924 284.91 78.7935 284.609 78.4471C284.308 78.1008 283.953 77.8279 283.545 77.6284C283.147 77.429 282.717 77.3293 282.255 77.3293C281.803 77.3293 281.373 77.429 280.964 77.6284C280.567 77.8279 280.217 78.1008 279.916 78.4471C279.626 78.7935 279.4 79.1924 279.239 79.6437Z" fill="#1A1B1C"/>
<path d="M292.388 89.4208V65.8046H297.227V89.4208H292.388Z" fill="#1A1B1C"/>
<path d="M307.832 89.8301C306.348 89.8301 304.993 89.4575 303.768 88.7123C302.553 87.967 301.58 86.9647 300.849 85.7052C300.128 84.4456 299.768 83.0549 299.768 81.533C299.768 80.3889 299.978 79.3183 300.397 78.3212C300.816 77.3136 301.392 76.4319 302.123 75.6762C302.865 74.91 303.725 74.3117 304.703 73.8814C305.681 73.451 306.724 73.2358 307.832 73.2358C309.122 73.2358 310.299 73.514 311.364 74.0703C312.439 74.6161 313.342 75.3613 314.073 76.3059C314.815 77.2401 315.342 78.2949 315.654 79.4705C315.965 80.6461 315.998 81.8583 315.75 83.1074H304.993C305.144 83.4747 305.343 83.8106 305.59 84.115C305.848 84.4089 306.16 84.6451 306.525 84.8235C306.902 85.0019 307.337 85.0964 307.832 85.1069C308.305 85.1174 308.74 85.0177 309.138 84.8077C309.547 84.5978 309.902 84.3144 310.203 83.9576L315.138 85.0754C314.482 86.4714 313.503 87.6154 312.202 88.5076C310.901 89.3893 309.445 89.8301 307.832 89.8301ZM304.816 79.6437H310.864C310.713 79.1924 310.487 78.7935 310.186 78.4471C309.885 78.1008 309.531 77.8279 309.122 77.6284C308.724 77.429 308.294 77.3293 307.832 77.3293C307.38 77.3293 306.95 77.429 306.542 77.6284C306.144 77.8279 305.794 78.1008 305.493 78.4471C305.203 78.7935 304.977 79.1924 304.816 79.6437Z" fill="#1A1B1C"/>
<path d="M333.456 79.3603V89.4208H328.618V80.6828C328.618 80.1895 328.494 79.7434 328.247 79.3445C327.999 78.9352 327.672 78.6151 327.263 78.3842C326.854 78.1427 326.397 78.022 325.892 78.022C325.387 78.022 324.924 78.1427 324.505 78.3842C324.097 78.6151 323.769 78.9352 323.521 79.3445C323.285 79.7434 323.167 80.1895 323.167 80.6828V89.4208H318.328L318.312 73.6767H323.15L323.167 74.6686C323.704 74.2172 324.317 73.8656 325.005 73.6137C325.693 73.3618 326.419 73.2358 327.182 73.2358C328.344 73.2358 329.397 73.514 330.343 74.0703C331.289 74.6161 332.042 75.3508 332.601 76.2745C333.171 77.1981 333.456 78.2267 333.456 79.3603Z" fill="#1A1B1C"/>
<path d="M343.457 89.8301C341.974 89.8301 340.619 89.4575 339.393 88.7123C338.178 87.967 337.205 86.9699 336.474 85.7209C335.754 84.4614 335.393 83.0706 335.393 81.5487C335.393 80.3942 335.603 79.3183 336.022 78.3212C336.442 77.3136 337.017 76.4319 337.748 75.6762C338.49 74.91 339.35 74.3117 340.329 73.8814C341.307 73.451 342.35 73.2358 343.457 73.2358C344.941 73.2358 346.29 73.6085 347.505 74.3537C348.731 75.0989 349.704 76.1013 350.424 77.3608C351.155 78.6203 351.521 80.0163 351.521 81.5487C351.521 82.6928 351.311 83.7634 350.892 84.7605C350.473 85.7576 349.892 86.6393 349.15 87.4055C348.419 88.1612 347.564 88.7543 346.586 89.1846C345.618 89.6149 344.575 89.8301 343.457 89.8301ZM343.457 85.1069C344.07 85.1069 344.618 84.9442 345.102 84.6188C345.597 84.2934 345.984 83.8631 346.263 83.3278C346.543 82.782 346.683 82.189 346.683 81.5487C346.683 80.8875 346.532 80.2839 346.231 79.7381C345.941 79.1924 345.548 78.762 345.054 78.4471C344.57 78.1218 344.038 77.9591 343.457 77.9591C342.855 77.9591 342.307 78.127 341.812 78.4629C341.328 78.7883 340.941 79.2238 340.651 79.7696C340.372 80.3154 340.232 80.9085 340.232 81.5487C340.232 82.2205 340.377 82.824 340.667 83.3593C340.968 83.8946 341.361 84.3197 341.845 84.6346C342.339 84.9494 342.877 85.1069 343.457 85.1069Z" fill="#1A1B1C"/>
<path d="M365.707 65.8046H370.545V89.4208H365.707V87.9723C365.212 88.5181 364.621 88.9642 363.933 89.3105C363.256 89.6569 362.481 89.8301 361.611 89.8301C360.439 89.8301 359.342 89.6149 358.321 89.1846C357.299 88.7543 356.396 88.1612 355.611 87.4055C354.837 86.6393 354.23 85.7576 353.789 84.7605C353.348 83.7634 353.127 82.6928 353.127 81.5487C353.127 80.4046 353.348 79.334 353.789 78.3369C354.23 77.3398 354.837 76.4634 355.611 75.7077C356.396 74.9415 357.299 74.3432 358.321 73.9128C359.342 73.4825 360.439 73.2673 361.611 73.2673C362.481 73.2673 363.256 73.4405 363.933 73.7869C364.621 74.1228 365.212 74.5688 365.707 75.1251V65.8046ZM361.675 85.2958C362.342 85.2958 362.949 85.1279 363.497 84.792C364.046 84.4561 364.481 84.0048 364.804 83.438C365.126 82.8712 365.288 82.2415 365.288 81.5487C365.288 80.856 365.126 80.2262 364.804 79.6594C364.481 79.0926 364.046 78.6413 363.497 78.3054C362.949 77.9696 362.342 77.8016 361.675 77.8016C361.008 77.8016 360.401 77.9696 359.853 78.3054C359.315 78.6413 358.885 79.0926 358.562 79.6594C358.251 80.2262 358.095 80.856 358.095 81.5487C358.095 82.2415 358.256 82.8712 358.579 83.438C358.901 84.0048 359.331 84.4561 359.869 84.792C360.417 85.1279 361.019 85.2958 361.675 85.2958Z" fill="#1A1B1C"/>
</g>
</g>
<defs>
<filter id="filter0_d_938_55" x="0" y="0" width="600" height="926" filterUnits="userSpaceOnUse" color-interpolation-filters="sRGB">
<feFlood flood-opacity="0" result="BackgroundImageFix"/>
<feColorMatrix in="SourceAlpha" type="matrix" values="0 0 0 0 0 0 0 0 0 0 0 0 0 0 0 0 0 0 127 0" result="hardAlpha"/>
<feOffset dy="10"/>
<feGaussianBlur stdDeviation="25"/>
<feComposite in2="hardAlpha" operator="out"/>
<feColorMatrix type="matrix" values="0 0 0 0 0 0 0 0 0 0 0 0 0 0 0 0 0 0 0.08 0"/>
<feBlend mode="normal" in2="BackgroundImageFix" result="effect1_dropShadow_938_55"/>
<feBlend mode="normal" in="SourceGraphic" in2="effect1_dropShadow_938_55" result="shape"/>
</filter>
</defs>
</svg>
