<svg width="150" height="37" viewBox="0 0 150 37" fill="none" xmlns="http://www.w3.org/2000/svg">
<rect width="150" height="37" rx="7" fill="#E6ECF0"/>
<path fill-rule="evenodd" clip-rule="evenodd" d="M15 13C15 12.4477 15.4477 12 16 12H32C32.5523 12 33 12.4477 33 13C33 13.5523 32.5523 14 32 14H16C15.4477 14 15 13.5523 15 13ZM15 19C15 18.4477 15.4477 18 16 18H32C32.5523 18 33 18.4477 33 19C33 19.5523 32.5523 20 32 20H16C15.4477 20 15 19.5523 15 19ZM15 25C15 24.4477 15.4477 24 16 24H23C23.5523 24 24 24.4477 24 25C24 25.5523 23.5523 26 23 26H16C15.4477 26 15 25.5523 15 25Z" fill="#92A5B2"/>
<path d="M43.2852 25.1309V23.7246H46.2559C47.2812 23.7246 48.1367 23.5254 48.8223 23.127C49.5137 22.7285 50.0293 22.1602 50.3691 21.4219C50.709 20.6777 50.8789 19.7871 50.8789 18.75C50.8789 17.7188 50.7119 16.834 50.3779 16.0957C50.0439 15.3574 49.543 14.792 48.875 14.3994C48.207 14.0068 47.3867 13.8105 46.4141 13.8105H43.2148V12.4043H46.5195C47.75 12.4043 48.8076 12.6562 49.6924 13.1602C50.5771 13.6641 51.2539 14.3936 51.7227 15.3486C52.1914 16.3037 52.4258 17.4375 52.4258 18.75C52.4258 20.0742 52.1885 21.2139 51.7139 22.1689C51.2393 23.124 50.5479 23.8564 49.6396 24.3662C48.7314 24.876 47.6387 25.1309 46.3613 25.1309H43.2852ZM43.9883 25.1309H42.4062V12.4043H43.9883V25.1309Z" fill="#92A5B2"/>
<path d="M58.2005 25.3242C57.2923 25.3242 56.5013 25.1221 55.8275 24.7178C55.1595 24.3135 54.6439 23.7422 54.2806 23.0039C53.9173 22.2656 53.7357 21.4102 53.7357 20.4375C53.7357 19.4648 53.9173 18.6006 54.2806 17.8447C54.6439 17.0889 55.1507 16.5029 55.8011 16.0869C56.4515 15.6709 57.2045 15.4629 58.0599 15.4629C58.7806 15.4629 59.4515 15.6211 60.0726 15.9375C60.6996 16.2539 61.2064 16.7695 61.5931 17.4844C61.9798 18.1992 62.1732 19.1133 62.1732 20.2266V20.8594H54.7904V19.5762H60.6439C60.6439 19.0488 60.5384 18.5742 60.3275 18.1523C60.1166 17.7305 59.8148 17.3994 59.4222 17.1592C59.0296 16.9189 58.5755 16.7988 58.0599 16.7988C57.4974 16.7988 57.0052 16.9365 56.5834 17.2119C56.1615 17.4873 55.8334 17.8564 55.599 18.3193C55.3705 18.7822 55.2533 19.2773 55.2474 19.8047V20.666C55.2474 21.3691 55.3734 21.9697 55.6254 22.4678C55.8773 22.9658 56.223 23.3438 56.6625 23.6016C57.1019 23.8594 57.6146 23.9883 58.2005 23.9883C58.5638 23.9883 58.892 23.9385 59.1849 23.8389C59.4779 23.7393 59.724 23.6104 59.9232 23.4521C60.1283 23.2881 60.2923 23.1035 60.4154 22.8984H62.0326C61.8802 23.3848 61.6283 23.8125 61.2767 24.1816C60.9252 24.5449 60.4857 24.8262 59.9584 25.0254C59.431 25.2246 58.8451 25.3242 58.2005 25.3242Z" fill="#92A5B2"/>
<path d="M69.0905 18.0645C68.9792 17.6543 68.7624 17.335 68.4402 17.1064C68.1238 16.8721 67.696 16.752 67.157 16.7461C66.7702 16.7461 66.4245 16.8105 66.1198 16.9395C65.8152 17.0684 65.5749 17.2441 65.3991 17.4668C65.2234 17.6836 65.1355 17.9238 65.1355 18.1875C65.1413 18.5039 65.2761 18.7734 65.5398 18.9961C65.8034 19.2129 66.2136 19.3887 66.7702 19.5234L68.1941 19.875C69.0437 20.0742 69.6794 20.3906 70.1013 20.8242C70.5232 21.252 70.737 21.7969 70.7429 22.459C70.737 23.0156 70.5876 23.5107 70.2946 23.9443C70.0075 24.3721 69.5798 24.709 69.0114 24.9551C68.4489 25.2012 67.778 25.3242 66.9988 25.3242C66.2898 25.3242 65.6745 25.2217 65.153 25.0166C64.6374 24.8115 64.2243 24.5098 63.9138 24.1113C63.6032 23.707 63.407 23.2148 63.3249 22.6348H64.907C64.9948 23.0977 65.2087 23.4434 65.5486 23.6719C65.8884 23.9004 66.3601 24.0117 66.9636 24.0059C67.4148 24.0059 67.8073 23.9473 68.1413 23.8301C68.4812 23.7129 68.739 23.5459 68.9148 23.3291C69.0905 23.1064 69.1784 22.8457 69.1784 22.5469C69.1784 22.207 69.0525 21.9258 68.8005 21.7031C68.5486 21.4805 68.153 21.3047 67.614 21.1758L66.1726 20.8418C65.3464 20.6484 64.7136 20.332 64.2741 19.8926C63.8405 19.4531 63.6238 18.9141 63.6238 18.2754C63.6238 17.7363 63.7732 17.2529 64.072 16.8252C64.3708 16.3975 64.7868 16.0635 65.32 15.8232C65.8532 15.583 66.4655 15.4629 67.157 15.4629C67.8015 15.4629 68.3698 15.5713 68.862 15.7881C69.3542 16.0049 69.7439 16.3096 70.031 16.7021C70.3239 17.0947 70.5027 17.5488 70.5671 18.0645H69.0905Z" fill="#92A5B2"/>
<path d="M76.254 25.3242C75.3692 25.3242 74.5958 25.1162 73.9337 24.7002C73.2774 24.2842 72.7735 23.7041 72.422 22.96C72.0704 22.21 71.8946 21.3574 71.8946 20.4023C71.8946 19.4414 72.0763 18.5859 72.4395 17.8359C72.8028 17.0859 73.3096 16.5029 73.96 16.0869C74.6163 15.6709 75.3692 15.4629 76.2188 15.4629C76.8868 15.4629 77.4962 15.5859 78.047 15.832C78.5977 16.0781 79.043 16.4326 79.3829 16.8955C79.7286 17.3525 79.9395 17.877 80.0157 18.4688H78.504C78.4278 18.1641 78.2901 17.8857 78.0909 17.6338C77.8975 17.3818 77.6427 17.1797 77.3262 17.0273C77.0157 16.875 76.6583 16.7988 76.254 16.7988C75.6915 16.7988 75.1964 16.9453 74.7686 17.2383C74.3409 17.5312 74.0069 17.9473 73.7667 18.4863C73.5264 19.0195 73.4063 19.6406 73.4063 20.3496C73.4063 21.0762 73.5235 21.7119 73.7579 22.2568C73.9923 22.8018 74.3233 23.2236 74.7511 23.5225C75.1788 23.8213 75.6798 23.9707 76.254 23.9707C76.629 23.9707 76.9718 23.9033 77.2823 23.7686C77.5928 23.6338 77.8507 23.4463 78.0557 23.2061C78.2667 22.96 78.4161 22.6641 78.504 22.3184H80.0157C79.9337 22.8926 79.7286 23.4082 79.4005 23.8652C79.0723 24.3223 78.6358 24.6797 78.0909 24.9375C77.5518 25.1953 76.9395 25.3242 76.254 25.3242Z" fill="#92A5B2"/>
<path d="M81.519 15.5859H82.978V17.0449H83.0834C83.2534 16.5645 83.5639 16.1777 84.0151 15.8848C84.4721 15.5859 84.9819 15.4336 85.5444 15.4277C86.019 15.4453 86.2827 15.457 86.3354 15.4629V16.9922C86.2358 16.9688 86.101 16.9453 85.9311 16.9219C85.7612 16.8984 85.5913 16.8867 85.4213 16.8867C84.9702 16.8867 84.5629 16.9834 84.1996 17.1768C83.8422 17.3701 83.558 17.6367 83.3471 17.9766C83.1362 18.3164 83.0307 18.6973 83.0307 19.1191V25.1309H81.519V15.5859Z" fill="#92A5B2"/>
<path d="M87.452 15.5859H88.9637V25.1309H87.452V15.5859ZM88.2078 14.0039C88.0145 14.0039 87.8357 13.957 87.6717 13.8633C87.5135 13.7695 87.3875 13.6494 87.2938 13.5029C87.2 13.3506 87.1531 13.1836 87.1531 13.002C87.1531 12.8203 87.2 12.6533 87.2938 12.501C87.3875 12.3428 87.5135 12.2197 87.6717 12.1318C87.8357 12.0439 88.0145 12 88.2078 12C88.3953 12 88.5711 12.0439 88.7352 12.1318C88.8992 12.2197 89.0311 12.3428 89.1307 12.501C89.2303 12.6533 89.2801 12.8203 89.2801 13.002C89.2801 13.1836 89.2303 13.3506 89.1307 13.5029C89.0311 13.6494 88.8992 13.7695 88.7352 13.8633C88.5711 13.957 88.3953 14.0039 88.2078 14.0039Z" fill="#92A5B2"/>
<path d="M91.0119 15.5859H92.4709V17.0977H92.6466C92.6701 17.0508 92.6935 17.0156 92.717 16.9922C92.8869 16.7168 93.0656 16.4766 93.2531 16.2715C93.4464 16.0605 93.7189 15.873 94.0705 15.709C94.4279 15.5449 94.8732 15.4629 95.4064 15.4629C96.2033 15.4629 96.9093 15.6621 97.5246 16.0605C98.1398 16.459 98.6173 17.0332 98.9572 17.7832C99.297 18.5273 99.467 19.3945 99.467 20.3848C99.467 21.3809 99.297 22.251 98.9572 22.9951C98.6173 23.7393 98.1398 24.3135 97.5246 24.7178C96.9152 25.1221 96.215 25.3242 95.424 25.3242C94.8908 25.3242 94.4396 25.2363 94.0705 25.0605C93.7072 24.8848 93.4259 24.6885 93.2267 24.4717C93.0334 24.2549 92.8517 24.0059 92.6818 23.7246L92.6466 23.6719H92.5236V28.7168H91.0119V15.5859ZM92.4884 20.3496C92.4943 21.0703 92.6027 21.7031 92.8136 22.248C93.0304 22.7871 93.341 23.209 93.7453 23.5137C94.1496 23.8184 94.6388 23.9707 95.213 23.9707C95.799 23.9707 96.3 23.8125 96.716 23.4961C97.132 23.1797 97.4425 22.749 97.6476 22.2041C97.8527 21.6592 97.9552 21.041 97.9552 20.3496C97.9552 19.6699 97.8527 19.0635 97.6476 18.5303C97.4425 17.9971 97.132 17.5781 96.716 17.2734C96.3058 16.9688 95.8048 16.8164 95.213 16.8164C94.6271 16.8164 94.132 16.96 93.7277 17.2471C93.3234 17.5342 93.0158 17.9443 92.8048 18.4775C92.5998 19.0107 92.4943 19.6348 92.4884 20.3496Z" fill="#92A5B2"/>
<path d="M105.242 16.8516H100.267V15.5859H105.242V16.8516ZM103.238 13.3008V22.3887C103.238 22.7695 103.293 23.0654 103.405 23.2764C103.516 23.4814 103.663 23.6221 103.844 23.6982C104.026 23.7744 104.24 23.8125 104.486 23.8125C104.591 23.8125 104.7 23.8096 104.811 23.8037C104.928 23.7979 105.042 23.7949 105.154 23.7949L105.382 23.7773V25.1836C105.066 25.2305 104.714 25.2539 104.328 25.2539C103.882 25.2539 103.46 25.1602 103.062 24.9727C102.664 24.7852 102.338 24.5068 102.086 24.1377C101.834 23.7627 101.709 23.3086 101.709 22.7754V13.3008H103.238Z" fill="#92A5B2"/>
<path d="M106.833 15.5859H108.345V25.1309H106.833V15.5859ZM107.589 14.0039C107.395 14.0039 107.217 13.957 107.053 13.8633C106.894 13.7695 106.768 13.6494 106.675 13.5029C106.581 13.3506 106.534 13.1836 106.534 13.002C106.534 12.8203 106.581 12.6533 106.675 12.501C106.768 12.3428 106.894 12.2197 107.053 12.1318C107.217 12.0439 107.395 12 107.589 12C107.776 12 107.952 12.0439 108.116 12.1318C108.28 12.2197 108.412 12.3428 108.512 12.501C108.611 12.6533 108.661 12.8203 108.661 13.002C108.661 13.1836 108.611 13.3506 108.512 13.5029C108.412 13.6494 108.28 13.7695 108.116 13.8633C107.952 13.957 107.776 14.0039 107.589 14.0039Z" fill="#92A5B2"/>
<path d="M114.295 25.3242C113.434 25.3242 112.672 25.1191 112.01 24.709C111.354 24.2988 110.844 23.7246 110.481 22.9863C110.117 22.2422 109.936 21.3809 109.936 20.4023C109.936 19.418 110.117 18.5537 110.481 17.8096C110.844 17.0654 111.354 16.4883 112.01 16.0781C112.672 15.668 113.434 15.4629 114.295 15.4629C115.151 15.4629 115.906 15.668 116.563 16.0781C117.219 16.4883 117.726 17.0654 118.083 17.8096C118.441 18.5537 118.619 19.418 118.619 20.4023C118.619 21.3809 118.441 22.2422 118.083 22.9863C117.726 23.7246 117.219 24.2988 116.563 24.709C115.906 25.1191 115.151 25.3242 114.295 25.3242ZM114.295 23.9883C114.91 23.9883 115.429 23.8271 115.851 23.5049C116.279 23.1826 116.595 22.749 116.8 22.2041C117.005 21.6592 117.108 21.0586 117.108 20.4023C117.108 19.7461 117.005 19.1455 116.8 18.6006C116.595 18.0557 116.279 17.6191 115.851 17.291C115.429 16.9629 114.91 16.7988 114.295 16.7988C113.674 16.7988 113.15 16.9629 112.722 17.291C112.294 17.6191 111.975 18.0557 111.764 18.6006C111.559 19.1455 111.453 19.7461 111.448 20.4023C111.453 21.0586 111.559 21.6592 111.764 22.2041C111.975 22.749 112.294 23.1826 112.722 23.5049C113.15 23.8271 113.674 23.9883 114.295 23.9883Z" fill="#92A5B2"/>
<path d="M121.757 25.1309H120.246V15.5859H121.705V17.0801H121.828C122.062 16.5703 122.411 16.1748 122.874 15.8936C123.342 15.6064 123.925 15.4629 124.623 15.4629C125.279 15.4629 125.847 15.5947 126.328 15.8584C126.808 16.1221 127.18 16.5264 127.444 17.0713C127.708 17.6104 127.839 18.2754 127.839 19.0664V25.1309H126.328V19.1719C126.328 18.6855 126.243 18.2666 126.073 17.915C125.903 17.5576 125.654 17.2852 125.326 17.0977C125.004 16.9102 124.617 16.8164 124.166 16.8164C123.697 16.8164 123.281 16.916 122.918 17.1152C122.554 17.3145 122.27 17.6104 122.065 18.0029C121.86 18.3955 121.757 18.8613 121.757 19.4004V25.1309Z" fill="#92A5B2"/>
</svg>
