<svg width="228" height="37" viewBox="0 0 228 37" fill="none" xmlns="http://www.w3.org/2000/svg">
<rect width="227.13" height="37" rx="7" fill="#EFF3F5"/>
<path d="M207.064 23.9806L201.518 17.642C200.864 16.8963 201.396 15.725 202.389 15.725H213.48C213.702 15.7248 213.92 15.7887 214.107 15.909C214.293 16.0293 214.442 16.2009 214.534 16.4033C214.625 16.6057 214.657 16.8303 214.625 17.0502C214.592 17.2701 214.497 17.476 214.35 17.6432L208.805 23.9794C208.696 24.1036 208.563 24.2032 208.412 24.2714C208.262 24.3396 208.099 24.3749 207.934 24.3749C207.769 24.3749 207.606 24.3396 207.456 24.2714C207.306 24.2032 207.172 24.1036 207.064 23.9794V23.9806Z" fill="#92A5B2"/>
<path d="M12.33 11.5641H17.1347C18.2024 11.5641 19.0976 11.7594 19.8203 12.15C20.5429 12.5406 21.08 13.0745 21.4316 13.7516C21.7831 14.4222 21.9589 15.1904 21.9589 16.0563C21.9589 16.9156 21.7831 17.6839 21.4316 18.361C21.08 19.038 20.5429 19.5752 19.8203 19.9723C19.1041 20.3694 18.2154 20.568 17.1542 20.568H13.7167V19.0055H17.0761C17.8053 19.0055 18.4042 18.8785 18.873 18.6246C19.3417 18.3707 19.6803 18.0257 19.8886 17.5895C20.1035 17.1533 20.2141 16.6422 20.2206 16.0563C20.2141 15.4703 20.1035 14.9593 19.8886 14.5231C19.6803 14.0869 19.3385 13.7451 18.8632 13.4977C18.3945 13.2503 17.7923 13.1266 17.0566 13.1266H14.0878V25.7047H12.33V11.5641Z" fill="#92A5B2"/>
<path d="M28.0238 25.9196C27.0667 25.9196 26.2204 25.6917 25.4847 25.236C24.7555 24.7802 24.1891 24.1422 23.7855 23.3219C23.3818 22.4951 23.18 21.538 23.18 20.4508C23.18 19.3571 23.3818 18.3968 23.7855 17.5699C24.1891 16.7431 24.7555 16.1018 25.4847 15.6461C26.2204 15.1904 27.0667 14.9625 28.0238 14.9625C28.9743 14.9625 29.8141 15.1904 30.5433 15.6461C31.2725 16.1018 31.8356 16.7431 32.2328 17.5699C32.6299 18.3968 32.8285 19.3571 32.8285 20.4508C32.8285 21.538 32.6299 22.4951 32.2328 23.3219C31.8356 24.1422 31.2725 24.7802 30.5433 25.236C29.8141 25.6917 28.9743 25.9196 28.0238 25.9196ZM28.0238 24.4352C28.7074 24.4352 29.2835 24.2561 29.7523 23.8981C30.2275 23.54 30.5791 23.0582 30.807 22.4528C31.0348 21.8473 31.1488 21.18 31.1488 20.4508C31.1488 19.7216 31.0348 19.0543 30.807 18.4489C30.5791 17.8434 30.2275 17.3584 29.7523 16.9938C29.2835 16.6292 28.7074 16.4469 28.0238 16.4469C27.3337 16.4469 26.751 16.6292 26.2757 16.9938C25.8005 17.3584 25.4456 17.8434 25.2113 18.4489C24.9834 19.0543 24.8662 19.7216 24.8597 20.4508C24.8662 21.18 24.9834 21.8473 25.2113 22.4528C25.4456 23.0582 25.8005 23.54 26.2757 23.8981C26.751 24.2561 27.3337 24.4352 28.0238 24.4352Z" fill="#92A5B2"/>
<path d="M34.6355 15.0992H36.2566V16.7203H36.3738C36.5626 16.1865 36.9076 15.7568 37.4089 15.4313C37.9167 15.0992 38.4831 14.93 39.1081 14.9235C39.6355 14.943 39.9285 14.956 39.987 14.9625V16.6617C39.8764 16.6357 39.7266 16.6097 39.5378 16.5836C39.349 16.5576 39.1602 16.5446 38.9714 16.5446C38.4701 16.5446 38.0176 16.652 37.614 16.8668C37.2169 17.0817 36.9011 17.3779 36.6667 17.7555C36.4324 18.1331 36.3152 18.5563 36.3152 19.025V25.7047H34.6355V15.0992Z" fill="#92A5B2"/>
<path d="M46.5206 16.5055H40.9933V15.0992H46.5206V16.5055ZM44.2941 12.5602V22.6578C44.2941 23.081 44.3559 23.4098 44.4796 23.6442C44.6033 23.872 44.7661 24.0283 44.9679 24.1129C45.1697 24.1976 45.4074 24.2399 45.6808 24.2399C45.798 24.2399 45.9184 24.2366 46.0421 24.2301C46.1723 24.2236 46.2993 24.2203 46.423 24.2203L46.6769 24.2008V25.7633C46.3253 25.8154 45.9347 25.8414 45.505 25.8414C45.0102 25.8414 44.5415 25.7373 44.0988 25.5289C43.6561 25.3206 43.2947 25.0114 43.0148 24.6012C42.7348 24.1845 42.5949 23.68 42.5949 23.0875V12.5602H44.2941Z" fill="#92A5B2"/>
<path d="M53.0347 16.5055H47.2925V15.0992H53.0347V16.5055ZM48.9917 13.6539C48.9917 13.0875 49.1154 12.5992 49.3628 12.1891C49.6102 11.7724 49.9585 11.4534 50.4078 11.2321C50.8635 11.0107 51.4006 10.9 52.0191 10.9C52.2209 10.9 52.4325 10.913 52.6538 10.9391C52.8817 10.9586 53.0868 10.9847 53.2691 11.0172V12.5211C53.1259 12.5016 52.9045 12.4755 52.605 12.443C52.5594 12.443 52.5236 12.443 52.4976 12.443C52.4716 12.443 52.4357 12.443 52.3902 12.443C51.7977 12.443 51.3648 12.5699 51.0913 12.8239C50.8179 13.0778 50.6844 13.4781 50.691 14.025V25.7047H48.9917V13.6539Z" fill="#92A5B2"/>
<path d="M58.5136 25.9196C57.5566 25.9196 56.7102 25.6917 55.9745 25.236C55.2454 24.7802 54.679 24.1422 54.2753 23.3219C53.8717 22.4951 53.6699 21.538 53.6699 20.4508C53.6699 19.3571 53.8717 18.3968 54.2753 17.5699C54.679 16.7431 55.2454 16.1018 55.9745 15.6461C56.7102 15.1904 57.5566 14.9625 58.5136 14.9625C59.4641 14.9625 60.304 15.1904 61.0331 15.6461C61.7623 16.1018 62.3255 16.7431 62.7226 17.5699C63.1197 18.3968 63.3183 19.3571 63.3183 20.4508C63.3183 21.538 63.1197 22.4951 62.7226 23.3219C62.3255 24.1422 61.7623 24.7802 61.0331 25.236C60.304 25.6917 59.4641 25.9196 58.5136 25.9196ZM58.5136 24.4352C59.1972 24.4352 59.7734 24.2561 60.2421 23.8981C60.7174 23.54 61.0689 23.0582 61.2968 22.4528C61.5247 21.8473 61.6386 21.18 61.6386 20.4508C61.6386 19.7216 61.5247 19.0543 61.2968 18.4489C61.0689 17.8434 60.7174 17.3584 60.2421 16.9938C59.7734 16.6292 59.1972 16.4469 58.5136 16.4469C57.8235 16.4469 57.2408 16.6292 56.7656 16.9938C56.2903 17.3584 55.9355 17.8434 55.7011 18.4489C55.4732 19.0543 55.3561 19.7216 55.3495 20.4508C55.3561 21.18 55.4732 21.8473 55.7011 22.4528C55.9355 23.0582 56.2903 23.54 56.7656 23.8981C57.2408 24.2561 57.8235 24.4352 58.5136 24.4352Z" fill="#92A5B2"/>
<path d="M66.805 25.7047H65.1253V11.5641H66.805V25.7047Z" fill="#92A5B2"/>
<path d="M69.0808 15.0992H70.7605V25.7047H69.0808V15.0992ZM69.9206 13.3414C69.7058 13.3414 69.5072 13.2893 69.3249 13.1852C69.1492 13.081 69.0092 12.9476 68.905 12.7848C68.8009 12.6155 68.7488 12.43 68.7488 12.2281C68.7488 12.0263 68.8009 11.8408 68.905 11.6715C69.0092 11.4957 69.1492 11.359 69.3249 11.2614C69.5072 11.1637 69.7058 11.1149 69.9206 11.1149C70.129 11.1149 70.3243 11.1637 70.5066 11.2614C70.6889 11.359 70.8354 11.4957 70.946 11.6715C71.0567 11.8408 71.112 12.0263 71.112 12.2281C71.112 12.43 71.0567 12.6155 70.946 12.7848C70.8354 12.9476 70.6889 13.081 70.5066 13.1852C70.3243 13.2893 70.129 13.3414 69.9206 13.3414Z" fill="#92A5B2"/>
<path d="M77.3722 25.9196C76.4152 25.9196 75.5688 25.6917 74.8331 25.236C74.104 24.7802 73.5376 24.1422 73.1339 23.3219C72.7303 22.4951 72.5285 21.538 72.5285 20.4508C72.5285 19.3571 72.7303 18.3968 73.1339 17.5699C73.5376 16.7431 74.104 16.1018 74.8331 15.6461C75.5688 15.1904 76.4152 14.9625 77.3722 14.9625C78.3227 14.9625 79.1626 15.1904 79.8917 15.6461C80.6209 16.1018 81.1841 16.7431 81.5812 17.5699C81.9783 18.3968 82.1769 19.3571 82.1769 20.4508C82.1769 21.538 81.9783 22.4951 81.5812 23.3219C81.1841 24.1422 80.6209 24.7802 79.8917 25.236C79.1626 25.6917 78.3227 25.9196 77.3722 25.9196ZM77.3722 24.4352C78.0558 24.4352 78.632 24.2561 79.1007 23.8981C79.576 23.54 79.9275 23.0582 80.1554 22.4528C80.3833 21.8473 80.4972 21.18 80.4972 20.4508C80.4972 19.7216 80.3833 19.0543 80.1554 18.4489C79.9275 17.8434 79.576 17.3584 79.1007 16.9938C78.632 16.6292 78.0558 16.4469 77.3722 16.4469C76.6821 16.4469 76.0994 16.6292 75.6242 16.9938C75.1489 17.3584 74.7941 17.8434 74.5597 18.4489C74.3318 19.0543 74.2147 19.7216 74.2081 20.4508C74.2147 21.18 74.3318 21.8473 74.5597 22.4528C74.7941 23.0582 75.1489 23.54 75.6242 23.8981C76.0994 24.2561 76.6821 24.4352 77.3722 24.4352Z" fill="#92A5B2"/>
<path d="M84.4527 27.8336H82.9292L87.48 10.9H89.023L84.4527 27.8336Z" fill="#92A5B2"/>
<path d="M92.5878 11.5641L97.3535 23.2047H97.5292L102.295 11.5641H104.404V25.7047H102.744V15.0211H102.607L98.2128 25.7047H96.6503L92.2558 15.0211H92.1386V25.7047H90.4785V11.5641H92.5878Z" fill="#92A5B2"/>
<path d="M107.989 29.6891C107.507 29.6761 107.194 29.663 107.051 29.65V28.1461C107.129 28.1526 107.403 28.1656 107.871 28.1852C108.158 28.1787 108.396 28.1461 108.584 28.0875C108.773 28.0354 108.959 27.8922 109.141 27.6578C109.33 27.43 109.512 27.0719 109.688 26.5836L110 25.7828L106.075 15.0992H107.91L110.801 23.5172H110.918L113.809 15.0992H115.645L111.153 27.2281C110.84 28.0615 110.424 28.6767 109.903 29.0739C109.382 29.4775 108.744 29.6826 107.989 29.6891Z" fill="#92A5B2"/>
<path d="M120.685 11.5641H122.462L125.411 23.0094H125.548L128.536 11.5641H130.509L133.517 23.0094H133.634L136.583 11.5641H138.36L134.493 25.7047H132.677L129.591 14.5133H129.474L126.368 25.7047H124.552L120.685 11.5641Z" fill="#92A5B2"/>
<path d="M143.058 25.9196C142.049 25.9196 141.17 25.6949 140.421 25.2457C139.679 24.7965 139.106 24.1617 138.703 23.3414C138.299 22.5211 138.097 21.5706 138.097 20.4899C138.097 19.4091 138.299 18.4489 138.703 17.609C139.106 16.7692 139.669 16.1181 140.392 15.6559C141.115 15.1936 141.951 14.9625 142.902 14.9625C143.703 14.9625 144.448 15.1383 145.138 15.4899C145.835 15.8414 146.398 16.4143 146.828 17.2086C147.257 18.0029 147.472 19.0185 147.472 20.2555V20.9586H139.269V19.5328H145.773C145.773 18.9469 145.656 18.4196 145.421 17.9508C145.187 17.4821 144.852 17.1142 144.416 16.8473C143.979 16.5804 143.475 16.4469 142.902 16.4469C142.277 16.4469 141.73 16.5999 141.261 16.9059C140.793 17.2119 140.428 17.622 140.168 18.1364C139.914 18.6507 139.783 19.2008 139.777 19.7867V20.7438C139.777 21.525 139.917 22.1923 140.197 22.7457C140.477 23.2991 140.861 23.719 141.349 24.0055C141.837 24.292 142.407 24.4352 143.058 24.4352C143.462 24.4352 143.826 24.3798 144.152 24.2692C144.477 24.1585 144.751 24.0153 144.972 23.8395C145.2 23.6572 145.382 23.4521 145.519 23.2242H147.316C147.147 23.7646 146.867 24.2399 146.476 24.65C146.085 25.0537 145.597 25.3662 145.011 25.5875C144.425 25.8089 143.774 25.9196 143.058 25.9196Z" fill="#92A5B2"/>
<path d="M149.475 11.5641H151.154V16.7789H151.291C151.297 16.7594 151.307 16.7399 151.32 16.7203C151.333 16.7008 151.35 16.6813 151.369 16.6617C151.551 16.3623 151.75 16.0953 151.965 15.861C152.18 15.6266 152.482 15.4183 152.873 15.236C153.27 15.0537 153.765 14.9625 154.357 14.9625C155.243 14.9625 156.027 15.1839 156.711 15.6266C157.394 16.0693 157.928 16.7073 158.312 17.5406C158.697 18.3675 158.889 19.331 158.889 20.4313C158.889 21.538 158.697 22.5048 158.312 23.3317C157.928 24.1585 157.394 24.7965 156.711 25.2457C156.027 25.6949 155.249 25.9196 154.377 25.9196C153.778 25.9196 153.277 25.8219 152.873 25.6266C152.469 25.4313 152.157 25.2132 151.935 24.9723C151.714 24.7249 151.512 24.4482 151.33 24.1422C151.324 24.1292 151.317 24.1194 151.31 24.1129C151.304 24.1064 151.297 24.0966 151.291 24.0836H151.096V25.7047H149.475V11.5641ZM151.115 20.3922C151.115 21.193 151.232 21.8961 151.467 22.5016C151.701 23.1005 152.043 23.5693 152.492 23.9078C152.948 24.2464 153.491 24.4156 154.123 24.4156C154.774 24.4156 155.331 24.2399 155.793 23.8883C156.255 23.5367 156.6 23.0582 156.828 22.4528C157.062 21.8473 157.183 21.1604 157.189 20.3922C157.183 19.637 157.066 18.9632 156.838 18.3707C156.616 17.7783 156.275 17.3128 155.812 16.9742C155.35 16.6357 154.787 16.4664 154.123 16.4664C153.485 16.4664 152.941 16.6292 152.492 16.9547C152.043 17.2802 151.701 17.7392 151.467 18.3317C151.232 18.9176 151.115 19.6045 151.115 20.3922Z" fill="#92A5B2"/>
<path d="M166.575 17.8531C166.451 17.3974 166.21 17.0426 165.852 16.7887C165.5 16.5283 165.025 16.3948 164.426 16.3883C163.996 16.3883 163.612 16.4599 163.274 16.6031C162.935 16.7464 162.668 16.9417 162.473 17.1891C162.278 17.43 162.18 17.6969 162.18 17.9899C162.187 18.3414 162.336 18.6409 162.629 18.8883C162.922 19.1292 163.378 19.3245 163.996 19.4742L165.578 19.8649C166.522 20.0862 167.229 20.4378 167.698 20.9196C168.166 21.3948 168.404 22.0003 168.41 22.736C168.404 23.3545 168.238 23.9046 167.912 24.3864C167.593 24.8616 167.118 25.236 166.487 25.5094C165.862 25.7828 165.116 25.9196 164.25 25.9196C163.463 25.9196 162.779 25.8056 162.2 25.5778C161.627 25.3499 161.168 25.0146 160.823 24.5719C160.478 24.1227 160.259 23.5758 160.168 22.9313H161.926C162.024 23.4456 162.261 23.8297 162.639 24.0836C163.017 24.3375 163.541 24.4612 164.211 24.4547C164.713 24.4547 165.149 24.3896 165.52 24.2594C165.897 24.1292 166.184 23.9436 166.379 23.7028C166.575 23.4554 166.672 23.1656 166.672 22.8336C166.672 22.456 166.532 22.1435 166.252 21.8961C165.972 21.6487 165.533 21.4534 164.934 21.3102L163.332 20.9391C162.414 20.7242 161.711 20.3727 161.223 19.8844C160.741 19.3961 160.5 18.7972 160.5 18.0875C160.5 17.4886 160.666 16.9515 160.998 16.4762C161.33 16.0009 161.793 15.6298 162.385 15.3629C162.978 15.096 163.658 14.9625 164.426 14.9625C165.142 14.9625 165.774 15.083 166.321 15.3239C166.868 15.5647 167.3 15.9033 167.619 16.3395C167.945 16.7757 168.144 17.2802 168.215 17.8531H166.575Z" fill="#92A5B2"/>
<path d="M170.198 15.0992H171.878V25.7047H170.198V15.0992ZM171.038 13.3414C170.823 13.3414 170.624 13.2893 170.442 13.1852C170.266 13.081 170.126 12.9476 170.022 12.7848C169.918 12.6155 169.866 12.43 169.866 12.2281C169.866 12.0263 169.918 11.8408 170.022 11.6715C170.126 11.4957 170.266 11.359 170.442 11.2614C170.624 11.1637 170.823 11.1149 171.038 11.1149C171.246 11.1149 171.441 11.1637 171.624 11.2614C171.806 11.359 171.953 11.4957 172.063 11.6715C172.174 11.8408 172.229 12.0263 172.229 12.2281C172.229 12.43 172.174 12.6155 172.063 12.7848C171.953 12.9476 171.806 13.081 171.624 13.1852C171.441 13.2893 171.246 13.3414 171.038 13.3414Z" fill="#92A5B2"/>
<path d="M178.782 16.5055H173.255V15.0992H178.782V16.5055ZM176.556 12.5602V22.6578C176.556 23.081 176.618 23.4098 176.741 23.6442C176.865 23.872 177.028 24.0283 177.23 24.1129C177.431 24.1976 177.669 24.2399 177.943 24.2399C178.06 24.2399 178.18 24.2366 178.304 24.2301C178.434 24.2236 178.561 24.2203 178.685 24.2203L178.939 24.2008V25.7633C178.587 25.8154 178.196 25.8414 177.767 25.8414C177.272 25.8414 176.803 25.7373 176.36 25.5289C175.918 25.3206 175.556 25.0114 175.277 24.6012C174.997 24.1845 174.857 23.68 174.857 23.0875V12.5602H176.556Z" fill="#92A5B2"/>
<path d="M184.886 25.9196C183.877 25.9196 182.998 25.6949 182.25 25.2457C181.507 24.7965 180.934 24.1617 180.531 23.3414C180.127 22.5211 179.925 21.5706 179.925 20.4899C179.925 19.4091 180.127 18.4489 180.531 17.609C180.934 16.7692 181.498 16.1181 182.22 15.6559C182.943 15.1936 183.779 14.9625 184.73 14.9625C185.531 14.9625 186.276 15.1383 186.966 15.4899C187.663 15.8414 188.226 16.4143 188.656 17.2086C189.085 18.0029 189.3 19.0185 189.3 20.2555V20.9586H181.097V19.5328H187.601C187.601 18.9469 187.484 18.4196 187.25 17.9508C187.015 17.4821 186.68 17.1142 186.244 16.8473C185.807 16.5804 185.303 16.4469 184.73 16.4469C184.105 16.4469 183.558 16.5999 183.089 16.9059C182.621 17.2119 182.256 17.622 181.996 18.1364C181.742 18.6507 181.612 19.2008 181.605 19.7867V20.7438C181.605 21.525 181.745 22.1923 182.025 22.7457C182.305 23.2991 182.689 23.719 183.177 24.0055C183.666 24.292 184.235 24.4352 184.886 24.4352C185.29 24.4352 185.654 24.3798 185.98 24.2692C186.306 24.1585 186.579 24.0153 186.8 23.8395C187.028 23.6572 187.21 23.4521 187.347 23.2242H189.144C188.975 23.7646 188.695 24.2399 188.304 24.65C187.914 25.0537 187.425 25.3662 186.839 25.5875C186.253 25.8089 185.602 25.9196 184.886 25.9196Z" fill="#92A5B2"/>
</svg>
