<svg width="250" height="37" viewBox="0 0 250 37" fill="none" xmlns="http://www.w3.org/2000/svg">
<rect width="249.133" height="37" rx="7" fill="#E6ECF0"/>
<path d="M229.067 23.9806L223.522 17.642C222.867 16.8963 223.399 15.725 224.392 15.725H235.483C235.705 15.7248 235.923 15.7887 236.11 15.909C236.297 16.0293 236.445 16.2009 236.537 16.4033C236.629 16.6057 236.66 16.8303 236.628 17.0502C236.595 17.2701 236.5 17.476 236.354 17.6432L230.808 23.9794C230.7 24.1036 230.566 24.2032 230.416 24.2714C230.266 24.3396 230.103 24.3749 229.938 24.3749C229.773 24.3749 229.61 24.3396 229.46 24.2714C229.309 24.2032 229.176 24.1036 229.067 23.9794V23.9806Z" fill="#92A5B2"/>
<path d="M12.3333 11.7552H17.0739C18.1274 11.7552 19.0107 11.9479 19.7237 12.3333C20.4367 12.7187 20.9666 13.2455 21.3135 13.9135C21.6604 14.5751 21.8338 15.3331 21.8338 16.1875C21.8338 17.0354 21.6604 17.7934 21.3135 18.4614C20.9666 19.1295 20.4367 19.6594 19.7237 20.0513C19.0171 20.4431 18.1403 20.639 17.0932 20.639H13.7015V19.0974H17.0161C17.7356 19.0974 18.3265 18.9721 18.789 18.7216C19.2515 18.4711 19.5856 18.1306 19.7911 17.7002C20.0031 17.2699 20.1123 16.7656 20.1187 16.1875C20.1123 15.6094 20.0031 15.1051 19.7911 14.6747C19.5856 14.2443 19.2483 13.9071 18.7794 13.663C18.3169 13.4189 17.7227 13.2969 16.9969 13.2969H14.0677V25.7073H12.3333V11.7552Z" fill="#92A5B2"/>
<path d="M27.8178 25.9192C26.8735 25.9192 26.0385 25.6944 25.3126 25.2448C24.5932 24.7951 24.0343 24.1656 23.636 23.3562C23.2378 22.5404 23.0386 21.5962 23.0386 20.5234C23.0386 19.4442 23.2378 18.4968 23.636 17.681C24.0343 16.8652 24.5932 16.2324 25.3126 15.7828C26.0385 15.3331 26.8735 15.1083 27.8178 15.1083C28.7557 15.1083 29.5843 15.3331 30.3038 15.7828C31.0232 16.2324 31.5788 16.8652 31.9707 17.681C32.3625 18.4968 32.5584 19.4442 32.5584 20.5234C32.5584 21.5962 32.3625 22.5404 31.9707 23.3562C31.5788 24.1656 31.0232 24.7951 30.3038 25.2448C29.5843 25.6944 28.7557 25.9192 27.8178 25.9192ZM27.8178 24.4547C28.4923 24.4547 29.0608 24.278 29.5233 23.9247C29.9922 23.5714 30.3391 23.0961 30.5639 22.4987C30.7887 21.9013 30.9011 21.2429 30.9011 20.5234C30.9011 19.804 30.7887 19.1455 30.5639 18.5482C30.3391 17.9508 29.9922 17.4722 29.5233 17.1125C29.0608 16.7528 28.4923 16.5729 27.8178 16.5729C27.1369 16.5729 26.562 16.7528 26.0931 17.1125C25.6242 17.4722 25.2741 17.9508 25.0428 18.5482C24.818 19.1455 24.7024 19.804 24.6959 20.5234C24.7024 21.2429 24.818 21.9013 25.0428 22.4987C25.2741 23.0961 25.6242 23.5714 26.0931 23.9247C26.562 24.278 27.1369 24.4547 27.8178 24.4547Z" fill="#92A5B2"/>
<path d="M34.3414 15.2432H35.9409V16.8427H36.0565C36.2428 16.3159 36.5832 15.892 37.0778 15.5708C37.5789 15.2432 38.1377 15.0762 38.7544 15.0698C39.2747 15.089 39.5638 15.1019 39.6216 15.1083V16.7849C39.5124 16.7592 39.3646 16.7335 39.1784 16.7078C38.9921 16.6821 38.8058 16.6692 38.6195 16.6692C38.1249 16.6692 37.6784 16.7752 37.2802 16.9872C36.8883 17.1992 36.5768 17.4915 36.3455 17.864C36.1143 18.2366 35.9987 18.6541 35.9987 19.1166V25.7073H34.3414V15.2432Z" fill="#92A5B2"/>
<path d="M46.0681 16.6307H40.6144V15.2432H46.0681V16.6307ZM43.8712 12.738V22.701C43.8712 23.1186 43.9322 23.4429 44.0543 23.6742C44.1763 23.899 44.3369 24.0532 44.536 24.1367C44.7352 24.2202 44.9696 24.262 45.2394 24.262C45.355 24.262 45.4739 24.2587 45.5959 24.2523C45.7244 24.2459 45.8497 24.2427 45.9717 24.2427L46.2222 24.2234V25.7651C45.8754 25.8165 45.4899 25.8422 45.066 25.8422C44.5778 25.8422 44.1153 25.7394 43.6785 25.5338C43.2417 25.3283 42.8852 25.0232 42.6089 24.6185C42.3327 24.2074 42.1946 23.7095 42.1946 23.125V12.738H43.8712Z" fill="#92A5B2"/>
<path d="M52.4953 16.6307H46.8296V15.2432H52.4953V16.6307ZM48.5062 13.8172C48.5062 13.2583 48.6283 12.7765 48.8724 12.3719C49.1165 11.9607 49.4601 11.646 49.9033 11.4276C50.353 11.2092 50.8829 11.1 51.4932 11.1C51.6923 11.1 51.9011 11.1128 52.1195 11.1385C52.3443 11.1578 52.5467 11.1835 52.7265 11.2156V12.6995C52.5852 12.6802 52.3668 12.6545 52.0713 12.6224C52.0263 12.6224 51.991 12.6224 51.9653 12.6224C51.9396 12.6224 51.9043 12.6224 51.8593 12.6224C51.2748 12.6224 50.8476 12.7476 50.5778 12.9982C50.308 13.2487 50.1763 13.6437 50.1828 14.1833V25.7073H48.5062V13.8172Z" fill="#92A5B2"/>
<path d="M57.9011 25.9192C56.9569 25.9192 56.1218 25.6944 55.3959 25.2448C54.6765 24.7951 54.1176 24.1656 53.7194 23.3562C53.3211 22.5404 53.122 21.5962 53.122 20.5234C53.122 19.4442 53.3211 18.4968 53.7194 17.681C54.1176 16.8652 54.6765 16.2324 55.3959 15.7828C56.1218 15.3331 56.9569 15.1083 57.9011 15.1083C58.839 15.1083 59.6676 15.3331 60.3871 15.7828C61.1065 16.2324 61.6622 16.8652 62.054 17.681C62.4458 18.4968 62.6418 19.4442 62.6418 20.5234C62.6418 21.5962 62.4458 22.5404 62.054 23.3562C61.6622 24.1656 61.1065 24.7951 60.3871 25.2448C59.6676 25.6944 58.839 25.9192 57.9011 25.9192ZM57.9011 24.4547C58.5756 24.4547 59.1441 24.278 59.6066 23.9247C60.0755 23.5714 60.4224 23.0961 60.6472 22.4987C60.872 21.9013 60.9845 21.2429 60.9845 20.5234C60.9845 19.804 60.872 19.1455 60.6472 18.5482C60.4224 17.9508 60.0755 17.4722 59.6066 17.1125C59.1441 16.7528 58.5756 16.5729 57.9011 16.5729C57.2202 16.5729 56.6453 16.7528 56.1764 17.1125C55.7075 17.4722 55.3574 17.9508 55.1261 18.5482C54.9013 19.1455 54.7857 19.804 54.7793 20.5234C54.7857 21.2429 54.9013 21.9013 55.1261 22.4987C55.3574 23.0961 55.7075 23.5714 56.1764 23.9247C56.6453 24.278 57.2202 24.4547 57.9011 24.4547Z" fill="#92A5B2"/>
<path d="M66.082 25.7073H64.4247V11.7552H66.082V25.7073Z" fill="#92A5B2"/>
<path d="M68.3274 15.2432H69.9847V25.7073H68.3274V15.2432ZM69.1561 13.5088C68.9441 13.5088 68.7482 13.4574 68.5683 13.3547C68.3949 13.2519 68.2568 13.1202 68.154 12.9596C68.0512 12.7926 67.9998 12.6095 67.9998 12.4104C67.9998 12.2113 68.0512 12.0282 68.154 11.8612C68.2568 11.6877 68.3949 11.5528 68.5683 11.4565C68.7482 11.3601 68.9441 11.312 69.1561 11.312C69.3616 11.312 69.5543 11.3601 69.7342 11.4565C69.914 11.5528 70.0586 11.6877 70.1678 11.8612C70.277 12.0282 70.3316 12.2113 70.3316 12.4104C70.3316 12.6095 70.277 12.7926 70.1678 12.9596C70.0586 13.1202 69.914 13.2519 69.7342 13.3547C69.5543 13.4574 69.3616 13.5088 69.1561 13.5088Z" fill="#92A5B2"/>
<path d="M76.5083 25.9192C75.564 25.9192 74.7289 25.6944 74.0031 25.2448C73.2836 24.7951 72.7248 24.1656 72.3265 23.3562C71.9282 22.5404 71.7291 21.5962 71.7291 20.5234C71.7291 19.4442 71.9282 18.4968 72.3265 17.681C72.7248 16.8652 73.2836 16.2324 74.0031 15.7828C74.7289 15.3331 75.564 15.1083 76.5083 15.1083C77.4461 15.1083 78.2748 15.3331 78.9942 15.7828C79.7137 16.2324 80.2693 16.8652 80.6611 17.681C81.053 18.4968 81.2489 19.4442 81.2489 20.5234C81.2489 21.5962 81.053 22.5404 80.6611 23.3562C80.2693 24.1656 79.7137 24.7951 78.9942 25.2448C78.2748 25.6944 77.4461 25.9192 76.5083 25.9192ZM76.5083 24.4547C77.1827 24.4547 77.7512 24.278 78.2137 23.9247C78.6827 23.5714 79.0295 23.0961 79.2544 22.4987C79.4792 21.9013 79.5916 21.2429 79.5916 20.5234C79.5916 19.804 79.4792 19.1455 79.2544 18.5482C79.0295 17.9508 78.6827 17.4722 78.2137 17.1125C77.7512 16.7528 77.1827 16.5729 76.5083 16.5729C75.8274 16.5729 75.2525 16.7528 74.7835 17.1125C74.3146 17.4722 73.9645 17.9508 73.7333 18.5482C73.5084 19.1455 73.3928 19.804 73.3864 20.5234C73.3928 21.2429 73.5084 21.9013 73.7333 22.4987C73.9645 23.0961 74.3146 23.5714 74.7835 23.9247C75.2525 24.278 75.8274 24.4547 76.5083 24.4547Z" fill="#92A5B2"/>
<path d="M83.4943 27.8078H81.9912L86.4813 11.1H88.0037L83.4943 27.8078Z" fill="#92A5B2"/>
<path d="M91.521 11.7552L96.2231 23.2406H96.3965L101.099 11.7552H103.18V25.7073H101.542V15.1661H101.407L97.071 25.7073H95.5294L91.1934 15.1661H91.0778V25.7073H89.4398V11.7552H91.521Z" fill="#92A5B2"/>
<path d="M106.716 29.6385C106.241 29.6257 105.933 29.6128 105.791 29.6V28.1161C105.869 28.1225 106.138 28.1354 106.601 28.1547C106.883 28.1482 107.118 28.1161 107.304 28.0583C107.491 28.0069 107.674 27.8656 107.853 27.6344C108.04 27.4095 108.22 27.0562 108.393 26.5745L108.701 25.7844L104.828 15.2432H106.639L109.491 23.5489H109.607L112.459 15.2432H114.271L109.838 27.2104C109.53 28.0326 109.119 28.6396 108.605 29.0315C108.091 29.4298 107.462 29.6321 106.716 29.6385Z" fill="#92A5B2"/>
<path d="M119.282 25.7073L124.389 11.7552H126.219L131.326 25.7073H129.495L125.352 14.0099H125.236L121.093 25.7073H119.282ZM128.879 20.2536V21.776H121.729V20.2536H128.879Z" fill="#92A5B2"/>
<path d="M132.608 15.2432H134.207V16.9005H134.4C134.426 16.8491 134.452 16.8106 134.477 16.7849C134.664 16.483 134.859 16.2196 135.065 15.9948C135.277 15.7635 135.576 15.558 135.961 15.3781C136.353 15.1982 136.841 15.1083 137.426 15.1083C138.299 15.1083 139.073 15.3267 139.748 15.7635C140.422 16.2003 140.946 16.8298 141.318 17.6521C141.691 18.4679 141.877 19.4186 141.877 20.5041C141.877 21.5962 141.691 22.5501 141.318 23.3659C140.946 24.1817 140.422 24.8112 139.748 25.2544C139.08 25.6976 138.312 25.9192 137.445 25.9192C136.86 25.9192 136.366 25.8229 135.961 25.6302C135.563 25.4375 135.255 25.2223 135.036 24.9846C134.824 24.7469 134.625 24.4739 134.439 24.1656L134.4 24.1078H134.265V29.6385H132.608V15.2432ZM134.227 20.4656C134.233 21.2557 134.352 21.9495 134.583 22.5469C134.821 23.1378 135.161 23.6003 135.605 23.9344C136.048 24.2684 136.584 24.4354 137.214 24.4354C137.856 24.4354 138.405 24.262 138.861 23.9151C139.317 23.5682 139.658 23.0961 139.883 22.4987C140.108 21.9013 140.22 21.2236 140.22 20.4656C140.22 19.7205 140.108 19.0556 139.883 18.4711C139.658 17.8865 139.317 17.4272 138.861 17.0932C138.412 16.7592 137.862 16.5922 137.214 16.5922C136.571 16.5922 136.029 16.7495 135.585 17.0643C135.142 17.3791 134.805 17.8287 134.574 18.4133C134.349 18.9978 134.233 19.6819 134.227 20.4656Z" fill="#92A5B2"/>
<path d="M143.641 15.2432H145.24V16.9005H145.433C145.459 16.8491 145.484 16.8106 145.51 16.7849C145.696 16.483 145.892 16.2196 146.098 15.9948C146.31 15.7635 146.609 15.558 146.994 15.3781C147.386 15.1982 147.874 15.1083 148.459 15.1083C149.332 15.1083 150.106 15.3267 150.781 15.7635C151.455 16.2003 151.979 16.8298 152.351 17.6521C152.724 18.4679 152.91 19.4186 152.91 20.5041C152.91 21.5962 152.724 22.5501 152.351 23.3659C151.979 24.1817 151.455 24.8112 150.781 25.2544C150.113 25.6976 149.345 25.9192 148.478 25.9192C147.893 25.9192 147.399 25.8229 146.994 25.6302C146.596 25.4375 146.287 25.2223 146.069 24.9846C145.857 24.7469 145.658 24.4739 145.472 24.1656L145.433 24.1078H145.298V29.6385H143.641V15.2432ZM145.26 20.4656C145.266 21.2557 145.385 21.9495 145.616 22.5469C145.854 23.1378 146.194 23.6003 146.638 23.9344C147.081 24.2684 147.617 24.4354 148.247 24.4354C148.889 24.4354 149.438 24.262 149.894 23.9151C150.35 23.5682 150.691 23.0961 150.916 22.4987C151.14 21.9013 151.253 21.2236 151.253 20.4656C151.253 19.7205 151.14 19.0556 150.916 18.4711C150.691 17.8865 150.35 17.4272 149.894 17.0932C149.445 16.7592 148.895 16.5922 148.247 16.5922C147.604 16.5922 147.061 16.7495 146.618 17.0643C146.175 17.3791 145.838 17.8287 145.607 18.4133C145.382 18.9978 145.266 19.6819 145.26 20.4656Z" fill="#92A5B2"/>
<path d="M156.331 25.7073H154.674V11.7552H156.331V25.7073Z" fill="#92A5B2"/>
<path d="M158.577 15.2432H160.234V25.7073H158.577V15.2432ZM159.405 13.5088C159.193 13.5088 158.997 13.4574 158.817 13.3547C158.644 13.2519 158.506 13.1202 158.403 12.9596C158.3 12.7926 158.249 12.6095 158.249 12.4104C158.249 12.2113 158.3 12.0282 158.403 11.8612C158.506 11.6877 158.644 11.5528 158.817 11.4565C158.997 11.3601 159.193 11.312 159.405 11.312C159.611 11.312 159.803 11.3601 159.983 11.4565C160.163 11.5528 160.308 11.6877 160.417 11.8612C160.526 12.0282 160.581 12.2113 160.581 12.4104C160.581 12.6095 160.526 12.7926 160.417 12.9596C160.308 13.1202 160.163 13.2519 159.983 13.3547C159.803 13.4574 159.611 13.5088 159.405 13.5088Z" fill="#92A5B2"/>
<path d="M166.757 25.9192C165.787 25.9192 164.94 25.6912 164.214 25.2351C163.494 24.7791 162.942 24.1431 162.556 23.3273C162.171 22.5051 161.978 21.5705 161.978 20.5234C161.978 19.4699 162.177 18.5321 162.576 17.7099C162.974 16.8876 163.53 16.2485 164.243 15.7924C164.962 15.3363 165.787 15.1083 166.719 15.1083C167.451 15.1083 168.119 15.2432 168.723 15.513C169.327 15.7828 169.815 16.1714 170.188 16.6789C170.567 17.1799 170.798 17.7548 170.881 18.4036H169.224C169.141 18.0696 168.99 17.7645 168.771 17.4883C168.559 17.212 168.28 16.9904 167.933 16.8234C167.593 16.6564 167.201 16.5729 166.757 16.5729C166.141 16.5729 165.598 16.7335 165.129 17.0547C164.66 17.3758 164.294 17.8319 164.031 18.4229C163.767 19.0074 163.636 19.6883 163.636 20.4656C163.636 21.2621 163.764 21.9591 164.021 22.5565C164.278 23.1539 164.641 23.6164 165.11 23.944C165.579 24.2716 166.128 24.4354 166.757 24.4354C167.169 24.4354 167.544 24.3615 167.885 24.2138C168.225 24.066 168.508 23.8605 168.733 23.5971C168.964 23.3273 169.128 23.0029 169.224 22.6239H170.881C170.791 23.2534 170.567 23.8187 170.207 24.3198C169.847 24.8208 169.369 25.2126 168.771 25.4953C168.18 25.7779 167.509 25.9192 166.757 25.9192Z" fill="#92A5B2"/>
<path d="M178.927 20.851C178.555 20.8767 178.275 20.896 178.089 20.9088C177.909 20.9217 177.636 20.9409 177.27 20.9666C176.897 20.9923 176.525 21.018 176.152 21.0437C175.369 21.0951 174.762 21.2653 174.331 21.5544C173.907 21.8435 173.692 22.2642 173.686 22.8166C173.686 23.1764 173.782 23.4815 173.975 23.732C174.167 23.9825 174.424 24.172 174.746 24.3005C175.073 24.4225 175.452 24.4804 175.883 24.4739C176.48 24.4739 176.997 24.3551 177.434 24.1174C177.877 23.8798 178.214 23.565 178.446 23.1732C178.677 22.7813 178.792 22.3606 178.792 21.9109V18.6541C178.792 18.2109 178.706 17.8319 178.532 17.5172C178.359 17.196 178.092 16.9551 177.733 16.7945C177.379 16.6339 176.942 16.5536 176.422 16.5536C175.786 16.5536 175.266 16.6853 174.861 16.9487C174.457 17.2056 174.193 17.5429 174.071 17.9604H172.337C172.407 17.4015 172.626 16.9069 172.992 16.4765C173.365 16.0397 173.853 15.7025 174.457 15.4648C175.06 15.2271 175.741 15.1083 176.499 15.1083C177.103 15.1083 177.697 15.1982 178.282 15.3781C178.866 15.558 179.371 15.9241 179.795 16.4765C180.219 17.0225 180.43 17.7998 180.43 18.8083V25.7073H178.792V24.2812H178.715C178.503 24.718 178.134 25.1067 177.607 25.4471C177.087 25.7811 176.416 25.9514 175.594 25.9578C174.925 25.9514 174.322 25.8229 173.782 25.5724C173.242 25.3154 172.815 24.9461 172.501 24.4643C172.186 23.9761 172.028 23.4012 172.028 22.7396C172.028 21.6604 172.398 20.8992 173.136 20.456C173.882 20.0063 174.823 19.7397 175.96 19.6562C176.262 19.6305 176.608 19.608 177 19.5888C177.392 19.5631 177.778 19.5406 178.157 19.5213C178.407 19.5149 178.658 19.5085 178.908 19.5021L178.927 20.851Z" fill="#92A5B2"/>
<path d="M187.262 16.6307H181.809V15.2432H187.262V16.6307ZM185.066 12.738V22.701C185.066 23.1186 185.127 23.4429 185.249 23.6742C185.371 23.899 185.531 24.0532 185.73 24.1367C185.929 24.2202 186.164 24.262 186.434 24.262C186.549 24.262 186.668 24.2587 186.79 24.2523C186.919 24.2459 187.044 24.2427 187.166 24.2427L187.417 24.2234V25.7651C187.07 25.8165 186.684 25.8422 186.26 25.8422C185.772 25.8422 185.31 25.7394 184.873 25.5338C184.436 25.3283 184.079 25.0232 183.803 24.6185C183.527 24.2074 183.389 23.7095 183.389 23.125V12.738H185.066Z" fill="#92A5B2"/>
<path d="M189.007 15.2432H190.664V25.7073H189.007V15.2432ZM189.835 13.5088C189.623 13.5088 189.428 13.4574 189.248 13.3547C189.074 13.2519 188.936 13.1202 188.833 12.9596C188.731 12.7926 188.679 12.6095 188.679 12.4104C188.679 12.2113 188.731 12.0282 188.833 11.8612C188.936 11.6877 189.074 11.5528 189.248 11.4565C189.428 11.3601 189.623 11.312 189.835 11.312C190.041 11.312 190.234 11.3601 190.414 11.4565C190.593 11.5528 190.738 11.6877 190.847 11.8612C190.956 12.0282 191.011 12.2113 191.011 12.4104C191.011 12.6095 190.956 12.7926 190.847 12.9596C190.738 13.1202 190.593 13.2519 190.414 13.3547C190.234 13.4574 190.041 13.5088 189.835 13.5088Z" fill="#92A5B2"/>
<path d="M197.188 25.9192C196.243 25.9192 195.408 25.6944 194.682 25.2448C193.963 24.7951 193.404 24.1656 193.006 23.3562C192.608 22.5404 192.408 21.5962 192.408 20.5234C192.408 19.4442 192.608 18.4968 193.006 17.681C193.404 16.8652 193.963 16.2324 194.682 15.7828C195.408 15.3331 196.243 15.1083 197.188 15.1083C198.125 15.1083 198.954 15.3331 199.674 15.7828C200.393 16.2324 200.949 16.8652 201.341 17.681C201.732 18.4968 201.928 19.4442 201.928 20.5234C201.928 21.5962 201.732 22.5404 201.341 23.3562C200.949 24.1656 200.393 24.7951 199.674 25.2448C198.954 25.6944 198.125 25.9192 197.188 25.9192ZM197.188 24.4547C197.862 24.4547 198.431 24.278 198.893 23.9247C199.362 23.5714 199.709 23.0961 199.934 22.4987C200.159 21.9013 200.271 21.2429 200.271 20.5234C200.271 19.804 200.159 19.1455 199.934 18.5482C199.709 17.9508 199.362 17.4722 198.893 17.1125C198.431 16.7528 197.862 16.5729 197.188 16.5729C196.507 16.5729 195.932 16.7528 195.463 17.1125C194.994 17.4722 194.644 17.9508 194.413 18.5482C194.188 19.1455 194.072 19.804 194.066 20.5234C194.072 21.2429 194.188 21.9013 194.413 22.4987C194.644 23.0961 194.994 23.5714 195.463 23.9247C195.932 24.278 196.507 24.4547 197.188 24.4547Z" fill="#92A5B2"/>
<path d="M205.368 25.7073H203.711V15.2432H205.311V16.8812H205.446C205.703 16.3224 206.085 15.8888 206.592 15.5804C207.106 15.2657 207.745 15.1083 208.51 15.1083C209.229 15.1083 209.852 15.2528 210.379 15.5419C210.906 15.831 211.314 16.2742 211.603 16.8716C211.892 17.4626 212.036 18.1916 212.036 19.0588V25.7073H210.379V19.1745C210.379 18.6413 210.286 18.182 210.099 17.7966C209.913 17.4047 209.64 17.1061 209.28 16.9005C208.927 16.6949 208.503 16.5922 208.009 16.5922C207.495 16.5922 207.039 16.7014 206.64 16.9198C206.242 17.1382 205.931 17.4626 205.706 17.8929C205.481 18.3233 205.368 18.834 205.368 19.425V25.7073Z" fill="#92A5B2"/>
</svg>
