<svg width="737" height="479" viewBox="0 0 737 479" fill="none" xmlns="http://www.w3.org/2000/svg">
<g filter="url(#filter0_d_785_159)">
<path d="M51 80.4626H717V443.946C717 450.051 712.055 455 705.954 455H62.0458C55.9454 455 51 450.051 51 443.946V80.4626Z" fill="white"/>
<path d="M51 57.7043C51 51.2402 56.2363 46 62.6956 46H705.304C711.764 46 717 51.2402 717 57.7043V80.4626H51V57.7043Z" fill="#7864C1"/>
</g>
<g filter="url(#filter1_d_785_159)">
<path d="M20 50.4626H686V413.946C686 420.051 681.055 425 674.954 425H31.0458C24.9454 425 20 420.051 20 413.946V50.4626Z" fill="white"/>
<path d="M20 27.7043C20 21.2402 25.2363 16 31.6956 16H674.304C680.764 16 686 21.2402 686 27.7043V50.4626H20V27.7043Z" fill="#8052FF"/>
<path d="M260 150C260 147.239 262.239 145 265 145H385C387.761 145 390 147.239 390 150V200C390 202.761 387.761 205 385 205H265C262.239 205 260 202.761 260 200V150Z" fill="#F0F3F5"/>
<path d="M260 70C260 67.2386 262.239 65 265 65H666C668.761 65 671 67.2386 671 70V125C671 127.761 668.761 130 666 130H265C262.239 130 260 127.761 260 125V70Z" fill="#F0F3F5"/>
<path d="M36 70C36 67.2386 38.2386 65 41 65H240C242.761 65 245 67.2386 245 70V200C245 202.761 242.761 205 240 205H41C38.2386 205 36 202.761 36 200V70Z" fill="#F0F3F5"/>
<path d="M36 225C36 222.239 38.2386 220 41 220H385C387.761 220 390 222.239 390 225V405C390 407.761 387.761 410 385 410H41C38.2386 410 36 407.761 36 405V225Z" fill="#F0F3F5"/>
<path d="M405 150C405 147.239 407.239 145 410 145H667C669.761 145 672 147.239 672 150V405C672 407.761 669.761 410 667 410H410C407.239 410 405 407.761 405 405V150Z" fill="#F0F3F5"/>
</g>
<defs>
<filter id="filter0_d_785_159" x="31" y="30" width="706" height="449" filterUnits="userSpaceOnUse" color-interpolation-filters="sRGB">
<feFlood flood-opacity="0" result="BackgroundImageFix"/>
<feColorMatrix in="SourceAlpha" type="matrix" values="0 0 0 0 0 0 0 0 0 0 0 0 0 0 0 0 0 0 127 0" result="hardAlpha"/>
<feOffset dy="4"/>
<feGaussianBlur stdDeviation="10"/>
<feComposite in2="hardAlpha" operator="out"/>
<feColorMatrix type="matrix" values="0 0 0 0 0 0 0 0 0 0 0 0 0 0 0 0 0 0 0.05 0"/>
<feBlend mode="normal" in2="BackgroundImageFix" result="effect1_dropShadow_785_159"/>
<feBlend mode="normal" in="SourceGraphic" in2="effect1_dropShadow_785_159" result="shape"/>
</filter>
<filter id="filter1_d_785_159" x="0" y="0" width="706" height="449" filterUnits="userSpaceOnUse" color-interpolation-filters="sRGB">
<feFlood flood-opacity="0" result="BackgroundImageFix"/>
<feColorMatrix in="SourceAlpha" type="matrix" values="0 0 0 0 0 0 0 0 0 0 0 0 0 0 0 0 0 0 127 0" result="hardAlpha"/>
<feOffset dy="4"/>
<feGaussianBlur stdDeviation="10"/>
<feComposite in2="hardAlpha" operator="out"/>
<feColorMatrix type="matrix" values="0 0 0 0 0 0 0 0 0 0 0 0 0 0 0 0 0 0 0.05 0"/>
<feBlend mode="normal" in2="BackgroundImageFix" result="effect1_dropShadow_785_159"/>
<feBlend mode="normal" in="SourceGraphic" in2="effect1_dropShadow_785_159" result="shape"/>
</filter>
</defs>
</svg>
